<svg width="20" height="20" viewBox="0 0 20 20" fill="none" xmlns="http://www.w3.org/2000/svg">
<path d="M15 18.875L14.4019 18.8687C11.7602 18.8051 11.1949 18.2398 11.1313 15.5981L11.125 15C11.125 11.6331 11.6331 11.125 15 11.125L15.5981 11.1313C18.4284 11.1995 18.875 11.8435 18.875 15L18.8687 15.5981C18.8005 18.4284 18.1565 18.875 15 18.875ZM17.27 13.2573C17.236 13.0804 17.1992 12.9764 17.1729 12.9189C17.1603 12.8916 17.1508 12.8762 17.146 12.8691C17.1436 12.8656 17.1411 12.8623 17.1411 12.8623L17.1396 12.8604L17.1377 12.8589C17.1377 12.8589 17.1344 12.8564 17.1309 12.854C17.1238 12.8492 17.1084 12.8397 17.0811 12.8271C17.0236 12.8008 16.9196 12.764 16.7427 12.73C16.3703 12.6583 15.8276 12.625 15 12.625C14.1724 12.625 13.6297 12.6583 13.2573 12.73C13.0804 12.764 12.9764 12.8008 12.9189 12.8271C12.8916 12.8397 12.8762 12.8492 12.8691 12.854C12.8656 12.8564 12.8623 12.8589 12.8623 12.8589L12.8604 12.8604L12.8589 12.8623C12.8589 12.8623 12.8564 12.8656 12.854 12.8691C12.8492 12.8762 12.8397 12.8916 12.8271 12.9189C12.8008 12.9764 12.764 13.0804 12.73 13.2573C12.6583 13.6297 12.625 14.1724 12.625 15C12.625 15.8276 12.6583 16.3703 12.73 16.7427C12.764 16.9196 12.8008 17.0236 12.8271 17.0811C12.8397 17.1084 12.8492 17.1238 12.854 17.1309C12.8564 17.1344 12.8589 17.1377 12.8589 17.1377L12.8604 17.1396L12.8623 17.1411C12.8623 17.1411 12.8656 17.1436 12.8691 17.146C12.8762 17.1508 12.8916 17.1603 12.9189 17.1729C12.9764 17.1992 13.0804 17.236 13.2573 17.27C13.6297 17.3417 14.1724 17.375 15 17.375C15.8276 17.375 16.3703 17.3417 16.7427 17.27C16.9196 17.236 17.0236 17.1992 17.0811 17.1729C17.1084 17.1603 17.1238 17.1508 17.1309 17.146C17.1344 17.1436 17.1377 17.1411 17.1377 17.1411L17.1396 17.1396L17.1411 17.1377C17.1411 17.1377 17.1436 17.1344 17.146 17.1309C17.1508 17.1238 17.1603 17.1084 17.1729 17.0811C17.1992 17.0236 17.236 16.9196 17.27 16.7427C17.3417 16.3703 17.375 15.8276 17.375 15C17.375 14.1724 17.3417 13.6297 17.27 13.2573Z" fill="black"/>
<path d="M5 18.875L4.40186 18.8687C1.76022 18.8051 1.19493 18.2398 1.13135 15.5981L1.125 15C1.125 11.6331 1.63313 11.125 5 11.125L5.59814 11.1313C8.42839 11.1995 8.875 11.8435 8.875 15L8.86865 15.5981C8.80053 18.4284 8.15653 18.875 5 18.875ZM7.27002 13.2573C7.23597 13.0804 7.19916 12.9764 7.17285 12.9189C7.16032 12.8916 7.15083 12.8762 7.146 12.8691C7.14358 12.8656 7.14111 12.8623 7.14111 12.8623L7.13965 12.8604L7.1377 12.8589C7.1377 12.8589 7.13441 12.8564 7.13086 12.854C7.12375 12.8492 7.10839 12.8397 7.08105 12.8271C7.02364 12.8008 6.91964 12.764 6.74268 12.73C6.37031 12.6583 5.82764 12.625 5 12.625C4.17236 12.625 3.62969 12.6583 3.25732 12.73C3.08036 12.764 2.97636 12.8008 2.91895 12.8271C2.89161 12.8397 2.87625 12.8492 2.86914 12.854C2.86559 12.8564 2.8623 12.8589 2.8623 12.8589L2.86035 12.8604L2.85889 12.8623C2.85889 12.8623 2.85642 12.8656 2.854 12.8691C2.84917 12.8762 2.83968 12.8916 2.82715 12.9189C2.80084 12.9764 2.76403 13.0804 2.72998 13.2573C2.65835 13.6297 2.625 14.1724 2.625 15C2.625 15.8276 2.65835 16.3703 2.72998 16.7427C2.76403 16.9196 2.80084 17.0236 2.82715 17.0811C2.83968 17.1084 2.84917 17.1238 2.854 17.1309C2.85642 17.1344 2.85889 17.1377 2.85889 17.1377L2.86035 17.1396L2.8623 17.1411C2.8623 17.1411 2.86559 17.1436 2.86914 17.146C2.87625 17.1508 2.89161 17.1603 2.91895 17.1729C2.97636 17.1992 3.08036 17.236 3.25732 17.27C3.62969 17.3417 4.17236 17.375 5 17.375C5.82764 17.375 6.37031 17.3417 6.74268 17.27C6.91964 17.236 7.02364 17.1992 7.08105 17.1729C7.10839 17.1603 7.12375 17.1508 7.13086 17.146C7.13441 17.1436 7.1377 17.1411 7.1377 17.1411L7.13965 17.1396L7.14111 17.1377C7.14111 17.1377 7.14358 17.1344 7.146 17.1309C7.15083 17.1238 7.16032 17.1084 7.17285 17.0811C7.19916 17.0236 7.23597 16.9196 7.27002 16.7427C7.34165 16.3703 7.375 15.8276 7.375 15C7.375 14.1724 7.34165 13.6297 7.27002 13.2573Z" fill="black"/>
<path d="M5 8.875L4.40186 8.86865C1.76022 8.80507 1.19493 8.23978 1.13135 5.59814L1.125 5C1.125 1.63313 1.63313 1.125 5 1.125L5.59814 1.13135C8.42839 1.19947 8.875 1.84347 8.875 5L8.86865 5.59814C8.80053 8.42839 8.15653 8.875 5 8.875ZM7.27002 3.25732C7.23597 3.08036 7.19916 2.97636 7.17285 2.91895C7.16032 2.89161 7.15083 2.87625 7.146 2.86914C7.14358 2.86559 7.14111 2.8623 7.14111 2.8623L7.13965 2.86035L7.1377 2.85889C7.1377 2.85889 7.13441 2.85642 7.13086 2.854C7.12375 2.84917 7.10839 2.83968 7.08105 2.82715C7.02364 2.80084 6.91964 2.76403 6.74268 2.72998C6.37031 2.65835 5.82764 2.625 5 2.625C4.17236 2.625 3.62969 2.65835 3.25732 2.72998C3.08036 2.76403 2.97636 2.80084 2.91895 2.82715C2.89161 2.83968 2.87625 2.84917 2.86914 2.854C2.86559 2.85642 2.8623 2.85889 2.8623 2.85889L2.86035 2.86035L2.85889 2.8623C2.85889 2.8623 2.85642 2.86559 2.854 2.86914C2.84917 2.87625 2.83968 2.89161 2.82715 2.91895C2.80084 2.97636 2.76403 3.08036 2.72998 3.25732C2.65835 3.62969 2.625 4.17236 2.625 5C2.625 5.82764 2.65835 6.37031 2.72998 6.74268C2.76403 6.91964 2.80084 7.02364 2.82715 7.08105C2.83968 7.10839 2.84917 7.12375 2.854 7.13086C2.85642 7.13441 2.85889 7.1377 2.85889 7.1377L2.86035 7.13965L2.8623 7.14111C2.8623 7.14111 2.86559 7.14358 2.86914 7.146C2.87625 7.15083 2.89161 7.16032 2.91895 7.17285C2.97636 7.19916 3.08036 7.23597 3.25732 7.27002C3.62969 7.34165 4.17236 7.375 5 7.375C5.82764 7.375 6.37031 7.34165 6.74268 7.27002C6.91964 7.23597 7.02364 7.19916 7.08105 7.17285C7.10839 7.16032 7.12375 7.15083 7.13086 7.146C7.13441 7.14358 7.1377 7.14111 7.1377 7.14111L7.13965 7.13965L7.14111 7.1377C7.14111 7.1377 7.14358 7.13441 7.146 7.13086C7.15083 7.12375 7.16032 7.10839 7.17285 7.08105C7.19916 7.02364 7.23597 6.91964 7.27002 6.74268C7.34165 6.37031 7.375 5.82764 7.375 5C7.375 4.17236 7.34165 3.62969 7.27002 3.25732Z" fill="black"/>
<path d="M15 8.875L14.4019 8.86865C11.7602 8.80507 11.1949 8.23978 11.1313 5.59814L11.125 5C11.125 1.63313 11.6319 1.125 15 1.125L15.5981 1.13135C18.4284 1.19934 18.875 1.8423 18.875 5L18.8687 5.59863C18.8005 8.42951 18.1564 8.875 15 8.875ZM17.27 3.25684C17.236 3.0798 17.1991 2.97583 17.1729 2.91846C17.1603 2.89114 17.1508 2.87572 17.146 2.86865C17.1436 2.86508 17.1411 2.86182 17.1411 2.86182L17.1396 2.86035L17.1377 2.85889C17.1377 2.85889 17.1344 2.85595 17.1309 2.85352C17.1237 2.84864 17.1082 2.83908 17.0811 2.82666C17.0236 2.80037 16.9196 2.76398 16.7427 2.72998C16.3702 2.65841 15.8277 2.625 15 2.625C14.172 2.625 13.6293 2.65834 13.2568 2.72998C13.0798 2.76404 12.9758 2.80086 12.9185 2.82715C12.8911 2.83967 12.8757 2.84919 12.8687 2.854C12.8651 2.85644 12.8618 2.85889 12.8618 2.85889L12.8604 2.86035L12.8589 2.8623C12.8589 2.8623 12.856 2.86556 12.8535 2.86914C12.8486 2.87634 12.8391 2.89181 12.8267 2.91895C12.8004 2.9764 12.764 3.08041 12.73 3.25732C12.6584 3.62978 12.625 4.17231 12.625 5C12.625 5.82764 12.6583 6.37031 12.73 6.74268C12.764 6.91964 12.8008 7.02364 12.8271 7.08105C12.8397 7.10839 12.8492 7.12375 12.854 7.13086C12.8564 7.13441 12.8589 7.1377 12.8589 7.1377L12.8604 7.13965L12.8623 7.14111C12.8623 7.14111 12.8656 7.14358 12.8691 7.146C12.8762 7.15083 12.8916 7.16032 12.9189 7.17285C12.9764 7.19916 13.0804 7.23597 13.2573 7.27002C13.6297 7.34165 14.1724 7.375 15 7.375C15.8277 7.375 16.3702 7.34159 16.7427 7.27002C16.9196 7.23602 17.0236 7.19963 17.0811 7.17334C17.1082 7.16092 17.1237 7.15136 17.1309 7.14648C17.1344 7.14405 17.1377 7.14111 17.1377 7.14111L17.1396 7.13965L17.1411 7.13818C17.1411 7.13818 17.1436 7.13492 17.146 7.13135C17.1508 7.12428 17.1603 7.10886 17.1729 7.08154C17.1991 7.02417 17.236 6.9202 17.27 6.74316C17.3417 6.37073 17.375 5.82798 17.375 5C17.375 4.17202 17.3417 3.62927 17.27 3.25684Z" fill="black"/>
</svg>
