<svg xmlns="http://www.w3.org/2000/svg" viewBox="0 0 200 200" fill="none">
  <circle cx="100" cy="100" r="92" fill="#f5f6f9"/>
  <rect x="44" y="56" width="112" height="100" rx="10" fill="#ffffff" stroke="#dddfe5" stroke-width="2"/>
  <rect x="44" y="56" width="112" height="22" rx="10" fill="#ff7a00"/>
  <rect x="44" y="68" width="112" height="10" fill="#ff7a00"/>
  <rect x="64" y="46" width="6" height="20" rx="3" fill="#72757a"/>
  <rect x="130" y="46" width="6" height="20" rx="3" fill="#72757a"/>
  <g fill="#dddfe5">
    <circle cx="62" cy="98" r="3"/><circle cx="80" cy="98" r="3"/><circle cx="98" cy="98" r="3"/><circle cx="116" cy="98" r="3"/><circle cx="134" cy="98" r="3"/>
    <circle cx="62" cy="118" r="3"/><circle cx="80" cy="118" r="3"/>
    <circle cx="116" cy="118" r="3"/><circle cx="134" cy="118" r="3"/>
    <circle cx="62" cy="138" r="3"/><circle cx="80" cy="138" r="3"/><circle cx="98" cy="138" r="3"/><circle cx="134" cy="138" r="3"/>
  </g>
  <rect x="89" y="110" width="20" height="16" rx="6" fill="#5d7ce8"/>
  <circle cx="138" cy="142" r="16" fill="#16a937" stroke="#ffffff" stroke-width="3"/>
  <path d="M132 142 l5 5 l9 -10" stroke="#ffffff" stroke-width="2.5" stroke-linecap="round" stroke-linejoin="round" fill="none"/>
</svg>
